<?xml version='1.0' encoding='utf-8'?>
<!DOCTYPE svg PUBLIC '-//W3C//DTD SVG 1.1//EN' 'http://www.w3.org/Graphics/SVG/1.1/DTD/svg11.dtd'>
<svg version="1.1" xmlns="http://www.w3.org/2000/svg" viewBox="0 0 512 512" xmlns:xlink="http://www.w3.org/1999/xlink" enable-background="new 0 0 512 512">
  <g>
    <g>
      <path d="m151.5,266.9h209.1c11.3,0 20.5-9.1 20.5-20.4 0-11.3-9.2-20.4-20.5-20.4h-209.1c-11.3,0-20.5,9.1-20.5,20.4 0,11.2 9.2,20.4 20.5,20.4z"/>
      <path d="m440.1,460.2h-316.2c-28.7,0-52-20.6-52-45.9v-265.3c11.1,5.7 23.9,9 37.5,9h330.7v302.2zm-330.7-408.4h304.2c-5.1,9.8-7.7,20-7.7,30.7 0,13 3.9,24.7 9.3,34.6h-305.8c-20.7,0-37.5-14.7-37.5-32.7 0-17.9 16.8-32.6 37.5-32.6zm371.6,85.7c0-6.6-3.2-12.9-8.8-16.7-6.6-4.5-25.3-21.3-25.3-38.3 0-11.2 8.5-22.7 25.3-34.3 7.4-5.1 10.6-14.3 7.9-22.9-2.7-8.5-10.6-14.3-19.5-14.3h-351.2c-43.2-3.55271e-15-78.4,33-78.4,73.5 0,1.5 0,329.7 0,329.7 0,47.8 41.7,86.8 92.9,86.8h336.6c11.3,0 20.5-9.1 20.5-20.4v-343.1l0,0z"/>
    </g>
  </g>
</svg>
