<svg xmlns="http://www.w3.org/2000/svg" width="114" height="108" viewBox="0 0 114 108">
    <path fill="#000" fill-rule="evenodd" d="M27.144 91.768l1.975-1.693c17.512 12.634 41.635 11.803 58.277-2.489 17.664-15.169 21.61-40.96 9.29-60.717a1.265 1.265 0 1 1 2.145-1.341 49.68 49.68 0 0 1-71.687 66.24zM12.44 74.427a49.68 49.68 0 0 1 2.077-48.885 1.265 1.265 0 1 1 2.145 1.341C7.847 41.03 7.37 58.268 14.294 72.484l-1.854 1.943zm9.88 21.476l2.234-1.915c19.958 15.02 47.893 14.29 67.077-2.185 20.066-17.232 24.549-46.532 10.553-68.976a1.437 1.437 0 1 1 2.437-1.524 56.438 56.438 0 0 1-82.301 74.6zM7.799 79.29a56.437 56.437 0 0 1 1.039-57.97 1.437 1.437 0 1 1 2.436 1.524C.743 39.744.687 60.529 9.87 77.12L7.8 79.29zm20.47-62.822v-.001a.331.331 0 0 1 .091.562l-1.293 1.035a.323.323 0 0 1-.323.045l-2.77-1.174a.892.892 0 0 0-.527-.08c-.198.049-.382.145-.534.281l-.646.521 1.891 2.341a.323.323 0 0 1-.048.46l-1.16.938a.319.319 0 0 1-.46-.049l-5.187-6.45a.323.323 0 0 1 .049-.453l2.852-2.312a3.47 3.47 0 0 1 2.263-.931 2.565 2.565 0 0 1 1.94 1.07c.71.796.848 1.95.345 2.89.291.018.577.088.844.207l2.674 1.1zm-5.204-2.11a.902.902 0 0 0-.24-.752.883.883 0 0 0-.68-.402 1.817 1.817 0 0 0-.969.479l-1.293 1.04 1.242 1.536 1.293-1.041c.303-.21.53-.511.647-.86zM37.65 10.37l.534 1.089a.323.323 0 0 1-.152.43l-5.017 2.376a.324.324 0 0 1-.434-.152l-3.557-7.495a.323.323 0 0 1 .152-.433l5.008-2.415a.345.345 0 0 1 .434.164l.514 1.087a.323.323 0 0 1-.156.43L31.591 7.07l.698 1.481 3.172-1.497a.323.323 0 0 1 .43.152l.507 1.073a.323.323 0 0 1-.152.43l-3.175 1.503.763 1.617 3.386-1.622a.345.345 0 0 1 .43.165zm10.363-9.183a4.401 4.401 0 0 1 1.855 2.987 4.398 4.398 0 0 1-.543 3.47 4.664 4.664 0 0 1-3.08 1.834l-3.001.609a.21.21 0 0 1-.065 0 .323.323 0 0 1-.323-.259l-1.649-8.133a.32.32 0 0 1 .252-.382l2.997-.608a4.704 4.704 0 0 1 3.557.482zm-3.335 6.68l1.097-.224a2.238 2.238 0 0 0 1.974-3.047 2.233 2.233 0 0 0-3-2.028l-1.1.223 1.029 5.076zm27.905-6.312l-.012.005a.323.323 0 0 1 .246.385l-1.769 8.087a.323.323 0 0 1-.323.255.246.246 0 0 1-.068 0l-1.449-.323a.323.323 0 0 1-.203-.14.345.345 0 0 1-.045-.245l.702-3.2-3.518-.77-.698 3.2a.323.323 0 0 1-.388.249l-1.43-.318a.322.322 0 0 1-.245-.385l1.777-8.1a.327.327 0 0 1 .386-.25l1.458.324a.323.323 0 0 1 .23.382l-.676 3.073 3.518.769.672-3.075a.323.323 0 0 1 .386-.246l1.449.323zm12.594 5.29l-.003-.001c.156.087.22.28.146.443l-.534 1.076a.323.323 0 0 1-.433.146l-3.356-1.669-.728 1.465 3.143 1.562a.323.323 0 0 1 .148.434l-.53 1.067a.323.323 0 0 1-.433.146L79.45 9.95l-.792 1.59 3.356 1.669a.323.323 0 0 1 .146.433l-.534 1.077a.323.323 0 0 1-.433.146L76.22 12.39a.323.323 0 0 1-.146-.433l3.697-7.436a.323.323 0 0 1 .434-.146l4.972 2.47zm11.805 8.678l-.001.006a.323.323 0 0 1 .04.46l-5.355 6.337a.328.328 0 0 1-.46.04l-.873-.738a.323.323 0 0 1-.115-.262l.294-6.343-3.12 3.696a.323.323 0 0 1-.46.039l-1.08-.909a.325.325 0 0 1-.039-.46l5.355-6.347a.323.323 0 0 1 .46-.039l.863.728c.077.065.12.162.115.263l-.287 6.334 3.116-3.686a.323.323 0 0 1 .46-.04l1.087.92zM44.577 35.858c-2.323-1.08-3.928-1.96-4.816-2.641a1.409 1.409 0 0 1-.641-.369l-1.657-1.657a1.415 1.415 0 0 1 1-2.416h6.425c1.878-7.054 8.321-12.267 15.959-12.267 7.743 0 14.855 3.815 20.027 10.742 5.048 6.76 7.828 15.932 7.828 25.824 0 18.548-15.09 33.639-33.639 33.639a33.673 33.673 0 0 1-28.509-15.776L11.672 85.819c3.878 2.903 9.415 2.594 12.938-.928l4.4-4.4a1.415 1.415 0 0 1 2.002 2.002l-4.4 4.4a12.7 12.7 0 0 1-9.008 3.724 12.71 12.71 0 0 1-7.95-2.78l-7.237 7.237a1.411 1.411 0 0 1-1.001.414 1.415 1.415 0 0 1-1.001-2.416l8.184-8.184 17.224-17.223a.98.98 0 0 1 .042-.043l22.558-22.557c.186-.186.377-.367.573-.543a16.464 16.464 0 0 1-4.419-8.664zM55.064 83.88c16.987 0 30.807-13.82 30.807-30.807 0-9.285-2.58-17.855-7.266-24.13-4.624-6.194-10.93-9.605-17.758-9.605-7.545 0-13.683 6.138-13.683 13.683 0 4.062 1.789 7.889 4.908 10.499a1.417 1.417 0 0 1-.1 2.247 11.41 11.41 0 0 0-1.547 1.299L30.262 67.23h28.513c6.504 0 11.796-5.292 11.796-11.796s-5.292-11.796-11.796-11.796c-.558 0-1.118.039-1.665.115a1.417 1.417 0 0 1-.39-2.804 14.998 14.998 0 0 1 2.055-.142c8.065 0 14.626 6.562 14.626 14.627 0 8.065-6.561 14.626-14.626 14.626H29.362a30.837 30.837 0 0 0 25.702 13.821zm2.952-57.937a4.251 4.251 0 0 1 4.247 4.247 4.251 4.251 0 0 1-4.247 4.246 4.251 4.251 0 0 1-4.246-4.246 4.251 4.251 0 0 1 4.246-4.247zm0 5.662c.78 0 1.416-.635 1.416-1.415s-.635-1.416-1.416-1.416a1.417 1.417 0 0 0 0 2.83zm.281 33.189a1.25 1.25 0 1 1 0-2.5 6.693 6.693 0 0 0 6.697-6.697 6.697 6.697 0 0 0-7.633-6.632 1.25 1.25 0 0 1-.345-2.476 9.197 9.197 0 1 1 1.281 18.304zm13.909 10.319a1.25 1.25 0 1 1-1.498-2.002c6.57-4.916 10.516-12.62 10.516-20.982 0-4.27-1.022-8.389-2.952-12.09a1.25 1.25 0 0 1 2.217-1.156 28.566 28.566 0 0 1 3.235 13.246c0 9.159-4.323 17.601-11.518 22.984z"/>
</svg>
