<?xml version='1.0' encoding='utf-8'?>
<!DOCTYPE svg PUBLIC '-//W3C//DTD SVG 1.1//EN' 'http://www.w3.org/Graphics/SVG/1.1/DTD/svg11.dtd'>
<svg version="1.1" xmlns="http://www.w3.org/2000/svg" viewBox="0 0 512 512" xmlns:xlink="http://www.w3.org/1999/xlink" enable-background="new 0 0 512 512">
  <g>
    <g>
      <path d="m214.2,444.8c-0.8-25.4-5.9-61.4-35.9-92.1-54.3-55.5-81-112.1-81.3-158.9-0.2-35.2 29.9-96.4 98.6-96.4 47.4,0 103,28.9 156.4,81.3 31.7,31.2 69.7,35.4 91.9,36-16.6,18-211.7,213.3-229.7,230.1zm136.9-38.3c-11.3,0-21.8-3.4-30.5-9.3 1.8-1.8 74-74.2 75.9-76 5.9,8.7 9.3,19.3 9.3,30.6 0,30.2-24.5,54.7-54.7,54.7zm-299.3-328.7c-1.42109e-14-14.3 11.6-25.9 25.9-25.9 14.3,0 25.9,11.6 25.9,25.9 0,14.3-11.6,25.9-25.9,25.9-14.3,1.42109e-14-25.9-11.6-25.9-25.9zm446.6,112.3c-6.7-16.3-24.5-16.3-35.2-16.3 0,0-50.2,7.2-82.6-24.3-61.3-59.8-126.8-93-185-93-18.6,0-36.2,3.3-52.3,9.8-5.4-31.4-32.7-55.3-65.6-55.3-36.9,0-66.7,29.9-66.7,66.8 0,32.8 23.7,60.1 54.9,65.7-27.2,66.8 2.2,154.8 83.3,237.8 24.7,25.2 23.7,55.7 24.3,78 1,33.6 19,41.7 25.5,41.7 15.6,0 27-9.4 92.5-74.8 16.3,13.1 37,20.9 59.5,20.9 52.6,0 95.2-42.7 95.2-95.4 0-22.6-7.8-43.3-20.9-59.6 76.4-76.6 80.6-83.8 73.1-102z"/>
    </g>
  </g>
</svg>
