<svg xmlns="http://www.w3.org/2000/svg" width="490.017" height="590" viewBox="0 0 490.017 590">
  <g id="Group_2" data-name="Group 2" transform="translate(-960 -359)">
    <g id="not" transform="translate(960 459)">
      <g id="Group_1" data-name="Group 1" transform="translate(0)">
        <path id="Path_1" data-name="Path 1" d="M214.2,444.8c-.8-25.4-5.9-61.4-35.9-92.1C124,297.2,97.3,240.6,97,193.8c-.2-35.2,29.9-96.4,98.6-96.4,47.4,0,103,28.9,156.4,81.3,31.7,31.2,69.7,35.4,91.9,36C427.3,232.7,232.2,428,214.2,444.8Zm136.9-38.3a54.124,54.124,0,0,1-30.5-9.3c1.8-1.8,74-74.2,75.9-76a54.768,54.768,0,0,1-45.4,85.3ZM51.8,77.8a25.9,25.9,0,1,1,25.9,25.9A25.905,25.905,0,0,1,51.8,77.8ZM498.4,190.1c-6.7-16.3-24.5-16.3-35.2-16.3,0,0-50.2,7.2-82.6-24.3-61.3-59.8-126.8-93-185-93a139.034,139.034,0,0,0-52.3,9.8,66.657,66.657,0,1,0-77.4,77.2c-27.2,66.8,2.2,154.8,83.3,237.8,24.7,25.2,23.7,55.7,24.3,78,1,33.6,19,41.7,25.5,41.7,15.6,0,27-9.4,92.5-74.8A95.309,95.309,0,0,0,425.3,292.1c76.4-76.6,80.6-83.8,73.1-102Z" transform="translate(-11 -11)"/>
      </g>
    </g>
    <g id="Ellipse_1" data-name="Ellipse 1" transform="translate(1100 359)" fill="#00bd6e" stroke="#000" stroke-width="25">
      <circle cx="145.5" cy="145.5" r="145.5" stroke="none"/>
      <circle cx="145.5" cy="145.5" r="133" fill="none"/>
    </g>
    <text id="_2" data-name="2" transform="translate(1207 564)" font-size="144" font-family="Roboto-Regular, Roboto"><tspan x="0" y="0">2</tspan></text>
  </g>
</svg>
