<?xml version='1.0' encoding='utf-8'?>
<!DOCTYPE svg PUBLIC '-//W3C//DTD SVG 1.1//EN' 'http://www.w3.org/Graphics/SVG/1.1/DTD/svg11.dtd'>
<svg version="1.1" xmlns="http://www.w3.org/2000/svg" viewBox="0 0 512 512" xmlns:xlink="http://www.w3.org/1999/xlink" enable-background="new 0 0 512 512">
  <g>
    <g>
      <path d="m341.6,450.9c-9,6.3-33.3,21.9-88.6-13.2-51.5-32.7-163.6-118.5-197.1-286.2-9.5-47.3-3.3-72.3 18.9-87.7 38-26.3 74.7-3 82.4,10.8 28.4,51.2-16.7,80.5-28.3,87-7.5,4.1-12.2,11.7-11.5,20.2 5.5,62.2 74.5,162.1 129.6,187.6 7.6,3.5 17,2.3 22.7-3.8 8.1-8.7 55.4-40.6 90.8,3.8 19.3,24.1 9.1,62-18.9,81.5zm-88.4-124.8c-37.3-25-82.4-90.6-93.1-135.4 0.5-0.3 82.2-54.6 30.7-139.3-14.8-24.4-46.9-40.4-78.8-40.4-21.5,0-42.5,6.7-60.6,19.3-46,32.1-44,82.9-35.8,127.9 24.4,134 113.2,253.4 216.9,314.8 23.2,13.8 50.9,28.1 80.6,28.1 18.5,0 36-5.6 51.8-16.6 46.4-32.3 59.8-100.1 29.2-138.3-62.1-77.4-140.4-20.5-140.9-20.1z"/>
      <path d="m501,177.3c0-5.7-2.4-11.2-6.6-15l-81.2-74.7c-8.3-7.6-21.2-7.1-28.8,1.2-7.6,8.3-7.1,21.2 1.2,28.8l42.7,39.3h-139c-11.3,0-20.4,9.1-20.4,20.4 0,11.3 9.1,20.4 20.4,20.4h138.9l-42.7,39.3c-8.3,7.6-8.8,20.6-1.2,28.9 7.6,8.3 20.6,8.8 28.8,1.2l81.2-74.7c4.3-4 6.7-9.4 6.7-15.1l0,0z"/>
    </g>
  </g>
</svg>
